<svg width="38" height="78" viewBox="0 0 38 78" fill="none" xmlns="http://www.w3.org/2000/svg">
<path d="M19.3014 0H0V37.2L38 78L37.9997 34.8H28.4953C34.1698 31.6065 37.9997 25.5482 37.9997 18.6C37.9997 8.3275 29.6282 0 19.3014 0Z" fill="#D9F400"/>
<path fill-rule="evenodd" clip-rule="evenodd" d="M0 0H19.3014C29.6282 0 37.9997 8.3275 37.9997 18.6C37.9997 25.5482 34.1698 31.6065 28.4953 34.8H37.9997L38 78L0 37.2V0ZM2.41268 2.4H19.3014C28.2957 2.4 35.587 9.65299 35.587 18.6C35.587 27.547 28.2957 34.8 19.3014 34.8H2.41268V2.4ZM3.28901 37.2L35.5873 71.8781L35.587 37.2H3.28901Z" fill="#222222"/>
</svg>
